<?xml version="1.0" encoding="UTF-8" standalone="no"?>
<svg
   width="32.578125pt"
   height="31.775171pt"
   viewBox="0 0 32.578127 31.775172"
   version="1.2"
   id="svg192"
   sodipodi:docname="github.svg"
   inkscape:version="1.1 (c4e8f9ed74, 2021-05-24)"
   xmlns:inkscape="http://www.inkscape.org/namespaces/inkscape"
   xmlns:sodipodi="http://sodipodi.sourceforge.net/DTD/sodipodi-0.dtd"
   xmlns="http://www.w3.org/2000/svg"
   xmlns:svg="http://www.w3.org/2000/svg">
  <sodipodi:namedview
     id="namedview194"
     pagecolor="#ffffff"
     bordercolor="#666666"
     borderopacity="1.0"
     inkscape:pageshadow="2"
     inkscape:pageopacity="0.0"
     inkscape:pagecheckerboard="0"
     inkscape:document-units="pt"
     showgrid="false"
     inkscape:zoom="9.8641975"
     inkscape:cx="36.242178"
     inkscape:cy="23.924906"
     inkscape:window-width="1920"
     inkscape:window-height="1056"
     inkscape:window-x="0"
     inkscape:window-y="24"
     inkscape:window-maximized="1"
     inkscape:current-layer="surface447" />
  <defs
     id="defs5">
    <clipPath
       id="clip1">
      <path
         d="M 0,224 H 530.96875 V 499.98828 H 0 Z m 0,0"
         id="path2" />
    </clipPath>
  </defs>
  <g
     id="surface447"
     transform="translate(-136.32031,-55.445312)">
    <path
       style="fill:#191714;fill-opacity:1;fill-rule:evenodd;stroke:none"
       d="m 152.60937,55.445312 c -8.99609,0 -16.28906,7.292969 -16.28906,16.289063 0,7.195313 4.66797,13.300781 11.14063,15.457031 0.8125,0.148438 1.10937,-0.351562 1.10937,-0.785156 0,-0.386719 -0.0117,-1.410156 -0.0195,-2.769531 -4.53125,0.984375 -5.48828,-2.183594 -5.48828,-2.183594 -0.74219,-1.882813 -1.80859,-2.382813 -1.80859,-2.382813 -1.48047,-1.011718 0.11328,-0.992187 0.11328,-0.992187 1.63281,0.117187 2.49218,1.679687 2.49218,1.679687 1.45313,2.488282 3.81641,1.769532 4.74219,1.351563 0.14844,-1.050781 0.57031,-1.769531 1.03516,-2.175781 -3.61719,-0.410156 -7.42188,-1.808594 -7.42188,-8.050782 0,-1.777343 0.63672,-3.230468 1.67969,-4.371093 -0.16797,-0.410157 -0.73047,-2.066407 0.16016,-4.3125 0,0 1.36718,-0.4375 4.47656,1.671875 1.30078,-0.363282 2.69531,-0.542969 4.07812,-0.550782 1.38282,0.0078 2.77735,0.1875 4.07813,0.550782 3.10937,-2.109375 4.47656,-1.671875 4.47656,-1.671875 0.88672,2.246093 0.32813,3.902343 0.16016,4.3125 1.04687,1.140625 1.67578,2.59375 1.67578,4.371093 0,6.257813 -3.80859,7.636719 -7.4375,8.039063 0.58594,0.503906 1.10547,1.496094 1.10547,3.015625 0,2.175781 -0.0195,3.933594 -0.0195,4.46875 0,0.4375 0.29297,0.941406 1.12109,0.785156 6.46484,-2.160156 11.12891,-8.261718 11.12891,-15.457031 0,-8.996094 -7.29297,-16.289063 -16.28907,-16.289063"
       id="path11" />
  </g>
</svg>
